<svg width="238" height="40" viewBox="0 0 238 40" fill="none" xmlns="http://www.w3.org/2000/svg">
<path d="M114.387 5.8125V13.6625L106.919 11.2375C106.344 11.0329 105.734 10.9457 105.126 10.9808C104.517 11.0159 103.921 11.1727 103.374 11.442C102.827 11.7113 102.339 12.0875 101.94 12.5485C101.541 13.0094 101.238 13.5458 101.049 14.1258C100.861 14.7058 100.791 15.3177 100.843 15.9253C100.895 16.533 101.068 17.124 101.352 17.6635C101.637 18.2029 102.027 18.6799 102.498 19.0662C102.97 19.4525 103.515 19.7403 104.1 19.9125L111.569 22.3438L106.95 28.6937C106.286 29.6753 106.03 30.8764 106.235 32.0435C106.44 33.2107 107.09 34.2525 108.049 34.9491C109.007 35.6458 110.199 35.9427 111.372 35.7773C112.546 35.6119 113.609 34.997 114.337 34.0625L118.95 27.7063L123.55 34.0625C123.902 34.5472 124.347 34.9576 124.858 35.2705C125.369 35.5834 125.937 35.7925 126.529 35.8859C127.121 35.9794 127.726 35.9553 128.308 35.8151C128.891 35.6749 129.44 35.4213 129.925 35.0687C130.41 34.7162 130.82 34.2717 131.133 33.7606C131.446 33.2494 131.655 32.6816 131.748 32.0896C131.842 31.4977 131.818 30.8931 131.678 30.3104C131.537 29.7278 131.284 29.1784 130.931 28.6937L126.312 22.3438L133.812 19.9125C134.942 19.5211 135.872 18.7022 136.404 17.6319C136.936 16.5616 137.027 15.3253 136.657 14.1888C136.287 13.0523 135.485 12.1065 134.425 11.5546C133.365 11.0027 132.131 10.8888 130.987 11.2375L123.519 13.6625V5.8125C123.519 4.60245 123.038 3.44196 122.182 2.58633C121.327 1.73069 120.166 1.25 118.956 1.25C117.746 1.25 116.586 1.73069 115.73 2.58633C114.874 3.44196 114.394 4.60245 114.394 5.8125" fill="url(#paint0_linear_58_2311)"/>
<mask id="mask0_58_2311" style="mask-type:luminance" maskUnits="userSpaceOnUse" x="3" y="22" width="11" height="12">
<path d="M6.36866 22.6125C5.51002 22.6125 4.68655 22.9536 4.0794 23.5608C3.47225 24.1679 3.13114 24.9914 3.13114 25.85C3.13114 26.7087 3.47225 27.5321 4.0794 28.1393C4.68655 28.7464 5.51002 29.0875 6.36866 29.0875H10.5499C10.7723 29.1239 10.9744 29.2382 11.1203 29.41C11.2662 29.5817 11.3463 29.7997 11.3463 30.025C11.3463 30.2503 11.2662 30.4683 11.1203 30.6401C10.9744 30.8118 10.7723 30.9261 10.5499 30.9625H4.29991C4.14218 30.9509 3.98374 30.9719 3.8345 31.0242C3.68525 31.0766 3.54842 31.1592 3.43254 31.2668C3.31666 31.3744 3.22422 31.5048 3.16101 31.6498C3.0978 31.7948 3.06519 31.9512 3.06519 32.1094C3.06519 32.2676 3.0978 32.424 3.16101 32.569C3.22422 32.714 3.31666 32.8444 3.43254 32.952C3.54842 33.0596 3.68525 33.1422 3.8345 33.1945C3.98374 33.2469 4.14218 33.2679 4.29991 33.2563H10.5499C11.3848 33.2196 12.1732 32.8621 12.751 32.2584C13.3288 31.6547 13.6513 30.8513 13.6513 30.0156C13.6513 29.18 13.3288 28.3766 12.751 27.7729C12.1732 27.1691 11.3848 26.8117 10.5499 26.775H6.36866C6.23645 26.7903 6.1025 26.7775 5.97561 26.7373C5.84872 26.6972 5.73177 26.6307 5.6324 26.5421C5.53304 26.4536 5.4535 26.3451 5.39906 26.2236C5.34461 26.1022 5.31647 25.9706 5.31647 25.8375C5.31647 25.7044 5.34461 25.5729 5.39906 25.4514C5.4535 25.33 5.53304 25.2214 5.6324 25.1329C5.73177 25.0444 5.84872 24.9778 5.97561 24.9377C6.1025 24.8976 6.23645 24.8847 6.36866 24.9H12.6187C12.9082 24.8786 13.1789 24.7485 13.3765 24.5358C13.5741 24.3231 13.6839 24.0435 13.6839 23.7531C13.6839 23.4628 13.5741 23.1832 13.3765 22.9705C13.1789 22.7578 12.9082 22.6277 12.6187 22.6063L6.36866 22.6125Z" fill="white"/>
</mask>
<g mask="url(#mask0_58_2311)">
<path d="M13.7875 22.6125H3.125V33.275H13.7875V22.6125Z" fill="url(#paint1_linear_58_2311)"/>
</g>
<mask id="mask1_58_2311" style="mask-type:luminance" maskUnits="userSpaceOnUse" x="27" y="22" width="12" height="12">
<path d="M33.3312 26.3L34.825 29.2875L31.3375 30.2813L33.3312 26.3ZM32.3 23.2438L28.1187 31.6125C28.017 31.8116 27.9758 32.036 28.0003 32.2581C28.0247 32.4803 28.1137 32.6904 28.2562 32.8625C28.3644 32.9932 28.5 33.0984 28.6534 33.1708C28.8067 33.2431 28.9742 33.2809 29.1437 33.2813C29.2493 33.279 29.3542 33.2644 29.4562 33.2376L35.8625 31.4063L36.4875 32.6563C36.5836 32.8452 36.7304 33.0037 36.9114 33.1141C37.0924 33.2245 37.3005 33.2824 37.5125 33.2813C37.7529 33.2786 37.9867 33.2015 38.1814 33.0604C38.3762 32.9194 38.5224 32.7214 38.6 32.4938C38.6487 32.3512 38.6683 32.2003 38.6575 32.05C38.6468 31.8997 38.606 31.753 38.5375 31.6188L34.3562 23.25C34.26 23.0609 34.1133 22.9021 33.9324 22.7911C33.7515 22.6802 33.5434 22.6215 33.3312 22.6215C33.119 22.6215 32.9109 22.6802 32.73 22.7911C32.5491 22.9021 32.4025 23.0609 32.3062 23.25" fill="white"/>
</mask>
<g mask="url(#mask1_58_2311)">
<path d="M38.7 22.6125H27.9187V33.275H38.7V22.6125Z" fill="url(#paint2_linear_58_2311)"/>
</g>
<mask id="mask2_58_2311" style="mask-type:luminance" maskUnits="userSpaceOnUse" x="16" y="22" width="12" height="12">
<path d="M17.8563 22.6125C17.6986 22.6008 17.5401 22.6218 17.3909 22.6742C17.2417 22.7266 17.1048 22.8091 16.9889 22.9168C16.873 23.0244 16.7806 23.1548 16.7174 23.2998C16.6542 23.4448 16.6216 23.6012 16.6216 23.7594C16.6216 23.9175 16.6542 24.074 16.7174 24.219C16.7806 24.3639 16.873 24.4943 16.9889 24.602C17.1048 24.7096 17.2417 24.7922 17.3909 24.8445C17.5401 24.8969 17.6986 24.9179 17.8563 24.9062H20.8938V32.125C20.8821 32.2827 20.9031 32.4412 20.9555 32.5904C21.0079 32.7396 21.0904 32.8765 21.1981 32.9924C21.3057 33.1082 21.4361 33.2007 21.5811 33.2639C21.726 33.3271 21.8825 33.3597 22.0407 33.3597C22.1988 33.3597 22.3553 33.3271 22.5003 33.2639C22.6452 33.2007 22.7756 33.1082 22.8833 32.9924C22.9909 32.8765 23.0735 32.7396 23.1258 32.5904C23.1782 32.4412 23.1992 32.2827 23.1876 32.125V24.9062H26.225C26.5231 24.9064 26.8093 24.7902 27.0229 24.5824C27.2366 24.3746 27.3606 24.0916 27.3688 23.7937V23.725C27.3606 23.4271 27.2366 23.1442 27.0229 22.9364C26.8093 22.7286 26.5231 22.6124 26.225 22.6125H17.8563Z" fill="white"/>
</mask>
<g mask="url(#mask2_58_2311)">
<path d="M27.3688 22.6125H16.7063V33.275H27.3688V22.6125Z" fill="url(#paint3_linear_58_2311)"/>
</g>
<mask id="mask3_58_2311" style="mask-type:luminance" maskUnits="userSpaceOnUse" x="41" y="22" width="11" height="12">
<path d="M43.5937 27.8313V24.9125H48.2C48.401 24.9121 48.6 24.9529 48.7846 25.0326C48.9692 25.1122 49.1354 25.2288 49.2731 25.3753C49.4108 25.5218 49.517 25.6949 49.585 25.8841C49.653 26.0733 49.6816 26.2744 49.6687 26.475C49.6341 26.8535 49.4577 27.2048 49.1748 27.4587C48.892 27.7125 48.5237 27.8501 48.1437 27.8438H43.5937M42.4562 22.625C42.3028 22.625 42.1509 22.6555 42.0094 22.7148C41.8678 22.7741 41.7395 22.8609 41.6319 22.9703C41.5243 23.0796 41.4395 23.2093 41.3825 23.3518C41.3255 23.4942 41.2975 23.6466 41.3 23.8V32.1125C41.2955 32.398 41.3952 32.6755 41.5804 32.8929C41.7655 33.1103 42.0236 33.2528 42.3062 33.2938C42.4675 33.3142 42.6313 33.3 42.7867 33.2521C42.942 33.2043 43.0854 33.1239 43.2072 33.0162C43.3291 32.9086 43.4266 32.7762 43.4932 32.6279C43.5599 32.4796 43.5941 32.3188 43.5937 32.1562V30.175H47.2062L50.0062 32.975C50.1117 33.0816 50.2373 33.1664 50.3756 33.2243C50.514 33.2822 50.6625 33.3122 50.8125 33.3125C51.1172 33.3115 51.4092 33.1902 51.625 32.975C51.7323 32.8687 51.8175 32.7421 51.8756 32.6026C51.9338 32.4632 51.9637 32.3136 51.9637 32.1625C51.9637 32.0114 51.9338 31.8618 51.8756 31.7223C51.8175 31.5829 51.7323 31.4563 51.625 31.35L50 29.725C50.6852 29.3534 51.2376 28.7775 51.5804 28.0775C51.9231 27.3774 52.0392 26.5879 51.9125 25.8188C51.7488 24.9325 51.277 24.1326 50.5804 23.5607C49.8838 22.9888 49.0074 22.6817 48.1062 22.6938L42.4562 22.625Z" fill="white"/>
</mask>
<g mask="url(#mask3_58_2311)">
<path d="M52.1751 22.6125H41.3V33.35H52.1751V22.6125Z" fill="url(#paint4_linear_58_2311)"/>
</g>
<mask id="mask4_58_2311" style="mask-type:luminance" maskUnits="userSpaceOnUse" x="54" y="22" width="12" height="12">
<path d="M54.9312 23.7563V32.125C54.9328 32.4295 55.0545 32.7211 55.2698 32.9364C55.4851 33.1517 55.7767 33.2734 56.0812 33.275H64.4499C64.7395 33.2536 65.0102 33.1235 65.2078 32.9108C65.4054 32.6981 65.5152 32.4185 65.5152 32.1281C65.5152 31.8378 65.4054 31.5582 65.2078 31.3455C65.0102 31.1328 64.7395 31.0026 64.4499 30.9813H57.2312V23.7563C57.2312 23.4513 57.11 23.1588 56.8943 22.9431C56.6787 22.7274 56.3861 22.6063 56.0812 22.6063C55.7762 22.6063 55.4837 22.7274 55.268 22.9431C55.0523 23.1588 54.9312 23.4513 54.9312 23.7563Z" fill="white"/>
</mask>
<g mask="url(#mask4_58_2311)">
<path d="M65.5937 22.6125H54.9312V33.275H65.5937V22.6125Z" fill="url(#paint5_linear_58_2311)"/>
</g>
<mask id="mask5_58_2311" style="mask-type:luminance" maskUnits="userSpaceOnUse" x="74" y="22" width="12" height="12">
<path d="M82.9248 23.7562V29.3812L76.5185 22.975C76.467 22.9217 76.4105 22.8736 76.3498 22.8312L76.2623 22.7812L76.1498 22.725L76.0373 22.6875L75.931 22.6562H75.706H75.481L75.3748 22.6875C75.3381 22.6962 75.3025 22.7088 75.2685 22.725L75.1623 22.775L75.0685 22.8312C74.9436 22.9124 74.8371 23.0188 74.756 23.1437C74.7169 23.2084 74.6815 23.2752 74.6498 23.3437C74.6327 23.3774 74.6201 23.4131 74.6123 23.45C74.6103 23.4854 74.6103 23.5208 74.6123 23.5562C74.6061 23.6311 74.6061 23.7064 74.6123 23.7812V32.15C74.6123 32.455 74.7334 32.7475 74.9491 32.9632C75.1648 33.1788 75.4573 33.3 75.7623 33.3C76.0673 33.3 76.3598 33.1788 76.5754 32.9632C76.7911 32.7475 76.9123 32.455 76.9123 32.15V26.525L83.3185 32.9312C83.3718 32.9893 83.4327 33.0398 83.4998 33.0812C83.522 33.1001 83.5474 33.1149 83.5748 33.125L83.6873 33.1812L83.7998 33.225H83.906C83.9809 33.2311 84.0561 33.2311 84.131 33.225C84.208 33.2308 84.2853 33.2308 84.3623 33.225H84.4498L84.5685 33.1875L84.6748 33.1312L84.7685 33.0812C84.8904 32.9965 84.9963 32.8906 85.081 32.7687C85.0995 32.7406 85.1162 32.7114 85.131 32.6812C85.131 32.6437 85.1748 32.6062 85.1935 32.5625C85.2068 32.528 85.2173 32.4925 85.2248 32.4562C85.2284 32.4209 85.2284 32.3853 85.2248 32.35V32.1937V23.7562C85.2034 23.4667 85.0733 23.196 84.8605 22.9984C84.6478 22.8008 84.3682 22.691 84.0779 22.691C83.7876 22.691 83.508 22.8008 83.2953 22.9984C83.0825 23.196 82.9524 23.4667 82.931 23.7562" fill="white"/>
</mask>
<g mask="url(#mask5_58_2311)">
<path d="M85.2248 22.6125H74.5623V33.275H85.2248V22.6125Z" fill="url(#paint6_linear_58_2311)"/>
</g>
<mask id="mask6_58_2311" style="mask-type:luminance" maskUnits="userSpaceOnUse" x="68" y="22" width="4" height="12">
<path d="M68.9311 23.7563V32.125C68.9195 32.2827 68.9405 32.4412 68.9928 32.5904C69.0452 32.7396 69.1278 32.8765 69.2354 32.9924C69.343 33.1083 69.4734 33.2007 69.6184 33.2639C69.7634 33.3271 69.9198 33.3597 70.078 33.3597C70.2362 33.3597 70.3926 33.3271 70.5376 33.2639C70.6826 33.2007 70.8129 33.1083 70.9206 32.9924C71.0282 32.8765 71.1108 32.7396 71.1632 32.5904C71.2155 32.4412 71.2365 32.2827 71.2249 32.125V23.7563C71.2035 23.4667 71.0734 23.196 70.8606 22.9984C70.6479 22.8008 70.3683 22.691 70.078 22.691C69.7877 22.691 69.5081 22.8008 69.2953 22.9984C69.0826 23.196 68.9525 23.4667 68.9311 23.7563Z" fill="white"/>
</mask>
<g mask="url(#mask6_58_2311)">
<path d="M71.2249 22.6125H68.9312V33.275H71.2249V22.6125Z" fill="url(#paint7_linear_58_2311)"/>
</g>
<mask id="mask7_58_2311" style="mask-type:luminance" maskUnits="userSpaceOnUse" x="88" y="22" width="12" height="12">
<path d="M97.1186 23.0688L94.3811 26.8188H90.8749V23.8C90.8785 23.5167 90.7801 23.2415 90.5977 23.0246C90.4152 22.8078 90.1609 22.6637 89.8812 22.6188C89.7191 22.5974 89.5543 22.6109 89.3979 22.6583C89.2414 22.7057 89.0969 22.7858 88.9739 22.8935C88.8508 23.0011 88.7522 23.1338 88.6845 23.2825C88.6167 23.4313 88.5815 23.5928 88.5811 23.7563V32.0875C88.5778 32.3702 88.6764 32.6445 88.8589 32.8603C89.0414 33.0762 89.2956 33.2189 89.5749 33.2625C89.737 33.2838 89.9017 33.2704 90.0582 33.223C90.2146 33.1756 90.3592 33.0955 90.4822 32.9878C90.6052 32.8802 90.7039 32.7475 90.7716 32.5987C90.8393 32.45 90.8745 32.2885 90.8749 32.125V29.0875H94.3874L97.0999 32.7938C97.2822 33.0424 97.5559 33.2084 97.8606 33.2553C98.1654 33.3022 98.4763 33.2261 98.7249 33.0438C98.9735 32.8614 99.1396 32.5878 99.1864 32.283C99.2333 31.9783 99.1572 31.6674 98.9749 31.4188L96.4186 27.9375L98.9874 24.4375C99.1668 24.1923 99.2425 23.8863 99.198 23.5857C99.1536 23.2851 98.9926 23.0141 98.7499 22.8313C98.5018 22.6473 98.1909 22.569 97.8853 22.6135C97.5796 22.658 97.304 22.8216 97.1186 23.0688Z" fill="white"/>
</mask>
<g mask="url(#mask7_58_2311)">
<path d="M99.3623 22.5312H88.5811V33.4188H99.3623V22.5312Z" fill="url(#paint8_linear_58_2311)"/>
</g>
<mask id="mask8_58_2311" style="mask-type:luminance" maskUnits="userSpaceOnUse" x="143" y="24" width="5" height="4">
<path d="M146.05 24.6563C145.616 24.6579 145.201 24.831 144.894 25.1377C144.587 25.4444 144.414 25.86 144.413 26.2938C144.411 26.4572 144.437 26.6197 144.488 26.775H144.275C144.194 26.7666 144.112 26.7753 144.035 26.8005C143.957 26.8257 143.886 26.8669 143.826 26.9214C143.765 26.9759 143.717 27.0425 143.684 27.1169C143.651 27.1912 143.634 27.2717 143.634 27.3531C143.634 27.4345 143.651 27.515 143.684 27.5894C143.717 27.6638 143.765 27.7304 143.826 27.7849C143.886 27.8394 143.957 27.8806 144.035 27.9058C144.112 27.931 144.194 27.9397 144.275 27.9313H147.087C147.168 27.9397 147.25 27.931 147.328 27.9058C147.405 27.8806 147.476 27.8394 147.537 27.7849C147.597 27.7304 147.646 27.6638 147.679 27.5894C147.712 27.515 147.729 27.4345 147.729 27.3531C147.729 27.2717 147.712 27.1912 147.679 27.1169C147.646 27.0425 147.597 26.9759 147.537 26.9214C147.476 26.8669 147.405 26.8257 147.328 26.8005C147.25 26.7753 147.168 26.7666 147.087 26.775H146.05C145.922 26.775 145.8 26.7243 145.71 26.6341C145.619 26.5438 145.569 26.4214 145.569 26.2938C145.569 26.1661 145.619 26.0437 145.71 25.9535C145.8 25.8632 145.922 25.8125 146.05 25.8125H147.087C147.168 25.8209 147.25 25.8123 147.328 25.7871C147.405 25.7618 147.476 25.7206 147.537 25.6661C147.597 25.6116 147.646 25.5451 147.679 25.4707C147.712 25.3963 147.729 25.3158 147.729 25.2344C147.729 25.153 147.712 25.0725 147.679 24.9981C147.646 24.9237 147.597 24.8571 147.537 24.8026C147.476 24.7481 147.405 24.7069 147.328 24.6817C147.25 24.6565 147.168 24.6478 147.087 24.6563H146.05Z" fill="white"/>
</mask>
<g mask="url(#mask8_58_2311)">
<path d="M147.694 24.6562H143.719V27.9312H147.694V24.6562Z" fill="url(#paint9_linear_58_2311)"/>
</g>
<mask id="mask9_58_2311" style="mask-type:luminance" maskUnits="userSpaceOnUse" x="138" y="22" width="48" height="12">
<path d="M155.881 23.05L152.756 27.1812C152.608 27.3808 152.527 27.623 152.527 27.8718C152.527 28.1207 152.608 28.3629 152.756 28.5625L154.506 30.9562H142.65L140.812 28.4562C140.635 28.206 140.367 28.0338 140.066 27.9756C139.764 27.9174 139.452 27.9776 139.194 28.1437C139.066 28.2311 138.957 28.3433 138.873 28.4738C138.789 28.6042 138.732 28.7501 138.706 28.9029C138.68 29.0556 138.685 29.2121 138.72 29.363C138.756 29.5139 138.821 29.6561 138.912 29.7812L141.131 32.8125C141.238 32.9592 141.378 33.0787 141.54 33.1612C141.702 33.2437 141.881 33.287 142.062 33.2875H157.062C157.054 33.2065 157.063 33.1246 157.088 33.0472C157.113 32.9698 157.154 32.8986 157.209 32.8381C157.263 32.7776 157.33 32.7293 157.404 32.6962C157.479 32.6631 157.559 32.646 157.641 32.646C157.722 32.646 157.802 32.6631 157.877 32.6962C157.951 32.7293 158.018 32.7776 158.072 32.8381C158.127 32.8986 158.168 32.9698 158.193 33.0472C158.218 33.1246 158.227 33.2065 158.219 33.2875H164.8C164.792 33.2065 164.8 33.1246 164.825 33.0472C164.851 32.9698 164.892 32.8986 164.946 32.8381C165.001 32.7776 165.067 32.7293 165.142 32.6962C165.216 32.6631 165.297 32.646 165.378 32.646C165.459 32.646 165.54 32.6631 165.614 32.6962C165.689 32.7293 165.755 32.7776 165.81 32.8381C165.864 32.8986 165.906 32.9698 165.931 33.0472C165.956 33.1246 165.965 33.2065 165.956 33.2875H174.312C174.312 33.1333 174.374 32.9855 174.483 32.8765C174.592 32.7675 174.74 32.7062 174.894 32.7062C175.048 32.7062 175.196 32.7675 175.305 32.8765C175.414 32.9855 175.475 33.1333 175.475 33.2875H184.294C184.446 33.2875 184.597 33.2574 184.738 33.1989C184.878 33.1404 185.006 33.0546 185.114 32.9466C185.221 32.8386 185.306 32.7104 185.364 32.5694C185.421 32.4284 185.451 32.2773 185.45 32.125V23.7562C185.428 23.4634 185.297 23.1896 185.082 22.9898C184.867 22.79 184.584 22.6789 184.291 22.6789C183.997 22.6789 183.714 22.79 183.499 22.9898C183.284 23.1896 183.153 23.4634 183.131 23.7562V30.9562H176.1V29.0812C176.1 28.9262 176.069 28.7727 176.008 28.6299C175.948 28.4871 175.86 28.3579 175.748 28.2501C175.637 28.1422 175.505 28.0578 175.36 28.002C175.216 27.9461 175.061 27.9199 174.906 27.925C174.601 27.9442 174.314 28.0801 174.106 28.3046C173.898 28.5291 173.784 28.825 173.787 29.1312V30.9437H166.675V29.1312C166.679 28.824 166.564 28.5272 166.354 28.3025C166.145 28.0779 165.857 27.9426 165.55 27.925C165.395 27.9199 165.241 27.9461 165.096 28.002C164.951 28.0578 164.819 28.1422 164.708 28.2501C164.597 28.3579 164.508 28.4871 164.448 28.6299C164.387 28.7727 164.356 28.9262 164.356 29.0812V30.9562H157.337L155.1 27.8937L157.725 24.4562C157.886 24.2104 157.947 23.9128 157.897 23.6234C157.848 23.334 157.69 23.0742 157.457 22.8961C157.223 22.718 156.931 22.6349 156.639 22.6634C156.346 22.692 156.076 22.83 155.881 23.05Z" fill="white"/>
</mask>
<g mask="url(#mask9_58_2311)">
<path d="M185.456 22.6H138.525V33.275H185.456V22.6Z" fill="url(#paint10_linear_58_2311)"/>
</g>
<mask id="mask10_58_2311" style="mask-type:luminance" maskUnits="userSpaceOnUse" x="185" y="26" width="7" height="13">
<path d="M190.662 26.7687C190.361 26.7785 190.075 26.9052 189.865 27.1222C189.655 27.3392 189.537 27.6293 189.537 27.9312V33.4062C189.539 34.1688 189.239 34.9011 188.703 35.4432C188.166 35.9854 187.437 36.2934 186.675 36.3C186.516 36.2883 186.355 36.3096 186.205 36.3625C186.054 36.4155 185.916 36.499 185.798 36.6078C185.681 36.7166 185.588 36.8483 185.524 36.9949C185.46 37.1414 185.427 37.2995 185.427 37.4594C185.427 37.6192 185.46 37.7773 185.524 37.9238C185.588 38.0704 185.681 38.2022 185.798 38.311C185.916 38.4198 186.054 38.5033 186.205 38.5562C186.355 38.6092 186.516 38.6304 186.675 38.6187C188.055 38.6171 189.378 38.068 190.354 37.092C191.33 36.116 191.88 34.7928 191.881 33.4125V27.9375C191.881 27.6356 191.764 27.3454 191.554 27.1285C191.344 26.9115 191.058 26.7847 190.756 26.775L190.662 26.7687Z" fill="white"/>
</mask>
<g mask="url(#mask10_58_2311)">
<path d="M191.85 26.775H185.488V38.6125H191.85V26.775Z" fill="url(#paint11_linear_58_2311)"/>
</g>
<mask id="mask11_58_2311" style="mask-type:luminance" maskUnits="userSpaceOnUse" x="171" y="36" width="3" height="3">
<path d="M171.131 37.45C171.129 37.6802 171.195 37.9059 171.321 38.0985C171.447 38.2912 171.627 38.4422 171.839 38.5323C172.05 38.6223 172.284 38.6475 172.51 38.6046C172.737 38.5617 172.945 38.4525 173.109 38.2911C173.273 38.1297 173.385 37.9231 173.432 37.6977C173.479 37.4723 173.457 37.2381 173.371 37.0249C173.284 36.8116 173.136 36.6289 172.945 36.4998C172.755 36.3708 172.53 36.3012 172.3 36.3C172.148 36.3 171.998 36.3299 171.857 36.388C171.717 36.4461 171.59 36.5313 171.482 36.6386C171.375 36.746 171.29 36.8735 171.232 37.0138C171.174 37.154 171.144 37.3044 171.144 37.4562" fill="white"/>
</mask>
<g mask="url(#mask11_58_2311)">
<path d="M173.444 36.3H171.131V38.6125H173.444V36.3Z" fill="url(#paint12_linear_58_2311)"/>
</g>
<mask id="mask12_58_2311" style="mask-type:luminance" maskUnits="userSpaceOnUse" x="173" y="36" width="4" height="3">
<path d="M173.788 37.45C173.788 37.6787 173.855 37.9022 173.982 38.0924C174.11 38.2825 174.29 38.4307 174.501 38.5182C174.713 38.6058 174.945 38.6287 175.169 38.5841C175.394 38.5394 175.6 38.4293 175.761 38.2676C175.923 38.1059 176.033 37.8999 176.078 37.6756C176.122 37.4513 176.1 37.2188 176.012 37.0075C175.925 36.7963 175.776 36.6157 175.586 36.4886C175.396 36.3616 175.173 36.2938 174.944 36.2938C174.792 36.2938 174.642 36.3237 174.501 36.3818C174.361 36.4399 174.234 36.5251 174.126 36.6324C174.019 36.7398 173.934 36.8673 173.876 37.0075C173.817 37.1478 173.788 37.2982 173.788 37.45Z" fill="white"/>
</mask>
<g mask="url(#mask12_58_2311)">
<path d="M176.094 36.3H173.781V38.6125H176.094V36.3Z" fill="url(#paint13_linear_58_2311)"/>
</g>
<mask id="mask13_58_2311" style="mask-type:luminance" maskUnits="userSpaceOnUse" x="164" y="22" width="3" height="3">
<path d="M164.35 23.7562C164.35 23.9849 164.418 24.2085 164.545 24.3986C164.672 24.5887 164.852 24.737 165.064 24.8245C165.275 24.912 165.507 24.9349 165.732 24.8903C165.956 24.8456 166.162 24.7355 166.324 24.5738C166.485 24.4121 166.596 24.2061 166.64 23.9818C166.685 23.7575 166.662 23.525 166.574 23.3138C166.487 23.1025 166.339 22.9219 166.148 22.7948C165.958 22.6678 165.735 22.6 165.506 22.6C165.199 22.6 164.905 22.7218 164.688 22.9386C164.472 23.1555 164.35 23.4496 164.35 23.7562Z" fill="white"/>
</mask>
<g mask="url(#mask13_58_2311)">
<path d="M166.662 22.6H164.35V24.9125H166.662V22.6Z" fill="url(#paint14_linear_58_2311)"/>
</g>
<mask id="mask14_58_2311" style="mask-type:luminance" maskUnits="userSpaceOnUse" x="201" y="22" width="4" height="3">
<path d="M201.831 23.7562C201.83 23.9867 201.897 24.2123 202.024 24.4044C202.152 24.5966 202.333 24.7465 202.546 24.8353C202.758 24.9241 202.993 24.9476 203.219 24.9029C203.445 24.8583 203.653 24.7474 203.816 24.5845C203.979 24.4215 204.089 24.2138 204.134 23.9877C204.179 23.7617 204.155 23.5274 204.066 23.3147C203.978 23.1021 203.828 22.9206 203.635 22.7933C203.443 22.666 203.218 22.5988 202.987 22.6C202.681 22.6 202.387 22.7218 202.17 22.9387C201.953 23.1555 201.831 23.4496 201.831 23.7562Z" fill="white"/>
</mask>
<g mask="url(#mask14_58_2311)">
<path d="M204.144 22.6H201.831V24.9125H204.144V22.6Z" fill="url(#paint15_linear_58_2311)"/>
</g>
<mask id="mask15_58_2311" style="mask-type:luminance" maskUnits="userSpaceOnUse" x="204" y="22" width="3" height="3">
<path d="M204.487 23.7562C204.487 23.9849 204.555 24.2085 204.682 24.3986C204.809 24.5887 204.99 24.737 205.201 24.8245C205.412 24.912 205.645 24.9349 205.869 24.8903C206.093 24.8456 206.299 24.7355 206.461 24.5738C206.623 24.4121 206.733 24.2061 206.778 23.9818C206.822 23.7575 206.799 23.525 206.712 23.3138C206.624 23.1025 206.476 22.9219 206.286 22.7948C206.096 22.6678 205.872 22.6 205.644 22.6C205.337 22.6 205.043 22.7218 204.826 22.9386C204.609 23.1555 204.487 23.4496 204.487 23.7562Z" fill="white"/>
</mask>
<g mask="url(#mask15_58_2311)">
<path d="M206.794 22.6H204.481V24.9125H206.794V22.6Z" fill="url(#paint16_linear_58_2311)"/>
</g>
<mask id="mask16_58_2311" style="mask-type:luminance" maskUnits="userSpaceOnUse" x="195" y="22" width="40" height="12">
<path d="M195.125 23.7563V32.1125C195.124 32.2649 195.153 32.4159 195.211 32.5569C195.269 32.6979 195.354 32.8261 195.461 32.9342C195.569 33.0422 195.697 33.1279 195.837 33.1864C195.978 33.2449 196.129 33.275 196.281 33.275H205.031C205.031 33.1209 205.092 32.973 205.202 32.864C205.311 32.755 205.458 32.6938 205.612 32.6938C205.767 32.6938 205.914 32.755 206.023 32.864C206.132 32.973 206.194 33.1209 206.194 33.275H227.3C228.076 33.2724 228.827 32.9957 229.419 32.4938C230.057 33.0388 230.881 33.3165 231.719 33.2688C232.569 33.216 233.367 32.8394 233.949 32.2162C234.53 31.5931 234.85 30.7709 234.844 29.9188V25.95C234.847 25.6428 234.733 25.346 234.523 25.1214C234.314 24.8967 234.025 24.7614 233.719 24.7438C233.564 24.7387 233.409 24.7649 233.265 24.8208C233.12 24.8766 232.988 24.961 232.877 25.0689C232.765 25.1768 232.677 25.3059 232.616 25.4487C232.556 25.5915 232.525 25.745 232.525 25.9V29.9563C232.53 30.1993 232.444 30.4355 232.285 30.6191C232.126 30.8027 231.904 30.9206 231.662 30.95C231.529 30.964 231.395 30.9499 231.267 30.9086C231.14 30.8672 231.023 30.7996 230.923 30.71C230.823 30.6204 230.744 30.511 230.689 30.3886C230.635 30.2663 230.606 30.134 230.606 30V27.925C230.585 27.6322 230.453 27.3584 230.238 27.1586C230.023 26.9588 229.74 26.8477 229.447 26.8477C229.153 26.8477 228.871 26.9588 228.656 27.1586C228.441 27.3584 228.309 27.6322 228.288 27.925V30C228.294 30.124 228.276 30.2481 228.233 30.3646C228.19 30.4811 228.124 30.5877 228.039 30.6778C227.953 30.7679 227.85 30.8397 227.736 30.8886C227.622 30.9376 227.499 30.9627 227.375 30.9625H226.369V29.1563C226.372 28.8491 226.258 28.5523 226.048 28.3276C225.839 28.1029 225.55 27.9677 225.244 27.95C225.089 27.9459 224.935 27.9726 224.791 28.0288C224.646 28.085 224.515 28.1694 224.404 28.2771C224.293 28.3848 224.204 28.5136 224.143 28.656C224.082 28.7984 224.051 28.9515 224.05 29.1063V30.9813H206.8V29.1063C206.8 28.9512 206.769 28.7977 206.709 28.6549C206.648 28.5122 206.56 28.383 206.448 28.2751C206.337 28.1673 206.205 28.0829 206.06 28.027C205.916 27.9712 205.761 27.945 205.606 27.95C205.301 27.9692 205.014 28.1051 204.806 28.3296C204.598 28.5542 204.484 28.8501 204.488 29.1563V30.9688H197.444V23.7563C197.422 23.4635 197.291 23.1897 197.076 22.9899C196.861 22.79 196.578 22.679 196.284 22.679C195.991 22.679 195.708 22.79 195.493 22.9899C195.278 23.1897 195.147 23.4635 195.125 23.7563Z" fill="white"/>
</mask>
<g mask="url(#mask16_58_2311)">
<path d="M234.781 22.6H195.125V33.3125H234.781V22.6Z" fill="url(#paint17_linear_58_2311)"/>
</g>
<defs>
<linearGradient id="paint0_linear_58_2311" x1="132.456" y1="17.5416" x2="97.4755" y2="17.5416" gradientUnits="userSpaceOnUse">
<stop stop-color="#FCAF26"/>
<stop offset="0.01" stop-color="#FCAF26"/>
<stop offset="0.2" stop-color="#FBA626"/>
<stop offset="0.51" stop-color="#F88E24"/>
<stop offset="0.89" stop-color="#F36623"/>
<stop offset="1" stop-color="#F15A22"/>
</linearGradient>
<linearGradient id="paint1_linear_58_2311" x1="-9.997" y1="31.0131" x2="88.6405" y2="31.0131" gradientUnits="userSpaceOnUse">
<stop stop-color="#C7197D"/>
<stop offset="1" stop-color="#682E7D"/>
</linearGradient>
<linearGradient id="paint2_linear_58_2311" x1="-9.99706" y1="31.0132" x2="88.6405" y2="31.0132" gradientUnits="userSpaceOnUse">
<stop stop-color="#C7197D"/>
<stop offset="1" stop-color="#682E7D"/>
</linearGradient>
<linearGradient id="paint3_linear_58_2311" x1="-9.99696" y1="31.0131" x2="88.6406" y2="31.0131" gradientUnits="userSpaceOnUse">
<stop stop-color="#C7197D"/>
<stop offset="1" stop-color="#682E7D"/>
</linearGradient>
<linearGradient id="paint4_linear_58_2311" x1="-10.0407" y1="31.0194" x2="88.5968" y2="31.0194" gradientUnits="userSpaceOnUse">
<stop stop-color="#C7197D"/>
<stop offset="1" stop-color="#682E7D"/>
</linearGradient>
<linearGradient id="paint5_linear_58_2311" x1="-9.99709" y1="31.0131" x2="88.6404" y2="31.0131" gradientUnits="userSpaceOnUse">
<stop stop-color="#C7197D"/>
<stop offset="1" stop-color="#682E7D"/>
</linearGradient>
<linearGradient id="paint6_linear_58_2311" x1="-9.79723" y1="31.0131" x2="88.8403" y2="31.0131" gradientUnits="userSpaceOnUse">
<stop stop-color="#C7197D"/>
<stop offset="1" stop-color="#682E7D"/>
</linearGradient>
<linearGradient id="paint7_linear_58_2311" x1="-7.00325" y1="30.2694" x2="91.6341" y2="30.2694" gradientUnits="userSpaceOnUse">
<stop stop-color="#C7197D"/>
<stop offset="1" stop-color="#682E7D"/>
</linearGradient>
<linearGradient id="paint8_linear_58_2311" x1="8.35005" y1="26.221" x2="106.688" y2="26.221" gradientUnits="userSpaceOnUse">
<stop stop-color="#C7197D"/>
<stop offset="1" stop-color="#682E7D"/>
</linearGradient>
<linearGradient id="paint9_linear_58_2311" x1="241.551" y1="23.8315" x2="146.07" y2="23.8315" gradientUnits="userSpaceOnUse">
<stop stop-color="#C7197D"/>
<stop offset="1" stop-color="#682E7D"/>
</linearGradient>
<linearGradient id="paint10_linear_58_2311" x1="241.551" y1="25.469" x2="146.07" y2="25.469" gradientUnits="userSpaceOnUse">
<stop stop-color="#C7197D"/>
<stop offset="1" stop-color="#682E7D"/>
</linearGradient>
<linearGradient id="paint11_linear_58_2311" x1="241.551" y1="30.2253" x2="146.07" y2="30.2253" gradientUnits="userSpaceOnUse">
<stop stop-color="#C7197D"/>
<stop offset="1" stop-color="#682E7D"/>
</linearGradient>
<linearGradient id="paint12_linear_58_2311" x1="241.551" y1="34.9877" x2="146.07" y2="34.9877" gradientUnits="userSpaceOnUse">
<stop stop-color="#C7197D"/>
<stop offset="1" stop-color="#682E7D"/>
</linearGradient>
<linearGradient id="paint13_linear_58_2311" x1="241.552" y1="34.9877" x2="146.07" y2="34.9877" gradientUnits="userSpaceOnUse">
<stop stop-color="#C7197D"/>
<stop offset="1" stop-color="#682E7D"/>
</linearGradient>
<linearGradient id="paint14_linear_58_2311" x1="241.551" y1="21.2877" x2="146.07" y2="21.2877" gradientUnits="userSpaceOnUse">
<stop stop-color="#C7197D"/>
<stop offset="1" stop-color="#682E7D"/>
</linearGradient>
<linearGradient id="paint15_linear_58_2311" x1="241.551" y1="21.2877" x2="146.07" y2="21.2877" gradientUnits="userSpaceOnUse">
<stop stop-color="#C7197D"/>
<stop offset="1" stop-color="#682E7D"/>
</linearGradient>
<linearGradient id="paint16_linear_58_2311" x1="241.551" y1="21.2877" x2="146.07" y2="21.2877" gradientUnits="userSpaceOnUse">
<stop stop-color="#C7197D"/>
<stop offset="1" stop-color="#682E7D"/>
</linearGradient>
<linearGradient id="paint17_linear_58_2311" x1="241.551" y1="25.469" x2="146.07" y2="25.469" gradientUnits="userSpaceOnUse">
<stop stop-color="#C7197D"/>
<stop offset="1" stop-color="#682E7D"/>
</linearGradient>
</defs>
</svg>
